%TF.GenerationSoftware,Altium Limited,Altium Designer,24.8.2 (39)*%
G04 Layer_Color=0*
%FSLAX45Y45*%
%MOMM*%
%TF.SameCoordinates,FC40D359-564B-479C-ACF9-AE4C40DE52D9*%
%TF.FilePolarity,Positive*%
%TF.FileFunction,Plated,1,2,PTH,Drill*%
%TF.Part,Single*%
G01*
G75*
%TA.AperFunction,ComponentDrill*%
%ADD46C,1.10000*%
%TA.AperFunction,OtherDrill,Pad Free-6 (164.375mm,62.1mm)*%
%ADD47C,3.00000*%
%TA.AperFunction,OtherDrill,Pad Free-6 (164.363mm,28.651mm)*%
%ADD48C,3.00000*%
%TA.AperFunction,ComponentDrill*%
%ADD49C,1.10000*%
%TA.AperFunction,OtherDrill,Pad Free-6 (76.708mm,62.103mm)*%
%ADD50C,3.00000*%
%TA.AperFunction,OtherDrill,Pad Free-6 (76.708mm,28.651mm)*%
%ADD51C,3.00000*%
%TA.AperFunction,ViaDrill,NotFilled*%
%ADD52C,0.30000*%
D46*
X8127500Y5257200D02*
D03*
Y4907500D02*
D03*
X8128400Y4557100D02*
D03*
X8127300Y3857600D02*
D03*
Y4207100D02*
D03*
X13700760Y5432500D02*
D03*
X13446761D02*
D03*
X13192760D02*
D03*
X12938760D02*
D03*
X12684760D02*
D03*
X12430760D02*
D03*
X12176760D02*
D03*
X11922760D02*
D03*
X11668760D02*
D03*
X11414760D02*
D03*
X13700760Y2892500D02*
D03*
X13446761D02*
D03*
X13192760D02*
D03*
X12938760D02*
D03*
X12684760D02*
D03*
X12430760D02*
D03*
X12176760D02*
D03*
X11922760D02*
D03*
X11668760D02*
D03*
X11414760D02*
D03*
D47*
X16437500Y6210000D02*
D03*
D48*
X16436340Y2865120D02*
D03*
D49*
X12660000Y5750000D02*
D03*
X12310300D02*
D03*
X11959900Y5749100D02*
D03*
X11260400Y5750200D02*
D03*
X11609900D02*
D03*
X14563078Y5753900D02*
D03*
X14213379D02*
D03*
X13862979Y5753000D02*
D03*
X13163480Y5754100D02*
D03*
X13512979D02*
D03*
X15709900Y5575300D02*
D03*
X15201900D02*
D03*
X10749700Y5750000D02*
D03*
X10400000D02*
D03*
X10049600Y5749100D02*
D03*
X9350100Y5750200D02*
D03*
X9699600D02*
D03*
D50*
X7670800Y6210300D02*
D03*
D51*
Y2865120D02*
D03*
D52*
X7625000Y4000000D02*
D03*
X7750000Y3750000D02*
D03*
X8000000D02*
D03*
X7875000Y4000000D02*
D03*
X7500000Y3750000D02*
D03*
Y4250000D02*
D03*
X7750000D02*
D03*
X10125000Y4500000D02*
D03*
X16625002Y6000000D02*
D03*
X16500002Y5750000D02*
D03*
X16625002Y5500000D02*
D03*
X16500002Y5250000D02*
D03*
X16625002Y5000000D02*
D03*
X16500002Y4750000D02*
D03*
X16625002Y4500000D02*
D03*
X16500002Y4250000D02*
D03*
X16625002Y4000000D02*
D03*
X16500002Y3750000D02*
D03*
X16625002Y3500000D02*
D03*
X16500002Y3250000D02*
D03*
X16250002Y5750000D02*
D03*
X16375002Y5500000D02*
D03*
X16250002Y5250000D02*
D03*
X16375002Y5000000D02*
D03*
X16250002Y4750000D02*
D03*
X16375002Y4500000D02*
D03*
X16250002Y4250000D02*
D03*
X16375002Y4000000D02*
D03*
X16250002Y3750000D02*
D03*
X16375002Y3500000D02*
D03*
X16250002Y3250000D02*
D03*
X16000002Y6250000D02*
D03*
X16125002Y6000000D02*
D03*
X16000002Y5750000D02*
D03*
X16125002Y5500000D02*
D03*
Y3500000D02*
D03*
X16000002Y3250000D02*
D03*
X16125002Y3000000D02*
D03*
X16000002Y2750000D02*
D03*
X15750002Y6250000D02*
D03*
X15875002Y6000000D02*
D03*
X15750002Y5750000D02*
D03*
Y4750000D02*
D03*
X15875002Y4500000D02*
D03*
Y3500000D02*
D03*
X15750002Y3250000D02*
D03*
X15875002Y3000000D02*
D03*
X15750002Y2750000D02*
D03*
X15500000Y6250000D02*
D03*
X15625002Y6000000D02*
D03*
X15500000Y5750000D02*
D03*
Y5250000D02*
D03*
Y4750000D02*
D03*
X15625002Y4500000D02*
D03*
Y3500000D02*
D03*
X15500000Y3250000D02*
D03*
X15625002Y3000000D02*
D03*
X15500000Y2750000D02*
D03*
X15250000Y6250000D02*
D03*
X15375000Y6000000D02*
D03*
Y5500000D02*
D03*
X15250000Y5250000D02*
D03*
X15375000Y5000000D02*
D03*
X15250000Y4750000D02*
D03*
X15375000Y4500000D02*
D03*
Y4000000D02*
D03*
Y3000000D02*
D03*
X15250000Y2750000D02*
D03*
X15000000Y6250000D02*
D03*
X15125000Y6000000D02*
D03*
X15000000Y5750000D02*
D03*
Y5250000D02*
D03*
X15125000Y5000000D02*
D03*
X15000000Y4750000D02*
D03*
X15125000Y4500000D02*
D03*
Y3000000D02*
D03*
X15000000Y2750000D02*
D03*
X14750000Y6250000D02*
D03*
X14875000Y6000000D02*
D03*
X14750000Y5750000D02*
D03*
X14875000Y5500000D02*
D03*
X14750000Y5250000D02*
D03*
X14875000Y5000000D02*
D03*
Y4000000D02*
D03*
Y3000000D02*
D03*
X14750000Y2750000D02*
D03*
X14500000Y6250000D02*
D03*
X14625000Y6000000D02*
D03*
Y5500000D02*
D03*
X14500000Y5250000D02*
D03*
X14625000Y5000000D02*
D03*
Y3000000D02*
D03*
X14500000Y2750000D02*
D03*
X14250000Y6250000D02*
D03*
X14375000Y6000000D02*
D03*
Y3000000D02*
D03*
X14250000Y2750000D02*
D03*
X14000000Y6250000D02*
D03*
X14125000Y6000000D02*
D03*
X14000000Y5250000D02*
D03*
Y4750000D02*
D03*
X14125000Y3000000D02*
D03*
X14000000Y2750000D02*
D03*
X13750000Y6250000D02*
D03*
X13875000Y6000000D02*
D03*
X13750000Y5250000D02*
D03*
X13875000Y5000000D02*
D03*
X13750000Y4750000D02*
D03*
X13875000Y4500000D02*
D03*
Y3500000D02*
D03*
Y3000000D02*
D03*
X13500000Y6250000D02*
D03*
X13625000Y6000000D02*
D03*
X13250000Y6250000D02*
D03*
X13375000Y6000000D02*
D03*
X13250000Y5250000D02*
D03*
Y3250000D02*
D03*
X13000000Y6250000D02*
D03*
X13125000Y6000000D02*
D03*
X13000000Y5750000D02*
D03*
X13125000Y4500000D02*
D03*
X13000000Y3250000D02*
D03*
X12750000Y6250000D02*
D03*
X12875000Y6000000D02*
D03*
X12750000Y5250000D02*
D03*
Y3250000D02*
D03*
X12500000Y6250000D02*
D03*
X12625000Y6000000D02*
D03*
X12500000Y5750000D02*
D03*
Y5250000D02*
D03*
Y3250000D02*
D03*
X12250000Y6250000D02*
D03*
X12375000Y6000000D02*
D03*
X12250000Y5250000D02*
D03*
X12375000Y5000000D02*
D03*
X12250000Y3250000D02*
D03*
X12000000Y6250000D02*
D03*
X12125000Y6000000D02*
D03*
Y5000000D02*
D03*
X12000000Y3750000D02*
D03*
Y3250000D02*
D03*
X11750000Y6250000D02*
D03*
X11875000Y6000000D02*
D03*
X11750000Y3250000D02*
D03*
Y2750000D02*
D03*
X11500000Y6250000D02*
D03*
X11625000Y6000000D02*
D03*
X11250000Y6250000D02*
D03*
X11375000Y6000000D02*
D03*
Y4000000D02*
D03*
X11250000Y3250000D02*
D03*
X11000000Y6250000D02*
D03*
X11125000Y6000000D02*
D03*
X11000000Y3250000D02*
D03*
Y2750000D02*
D03*
X10750000Y6250000D02*
D03*
X10875000Y6000000D02*
D03*
Y5000000D02*
D03*
X10750000Y3250000D02*
D03*
Y2750000D02*
D03*
X10500000Y6250000D02*
D03*
X10625000Y6000000D02*
D03*
X10500000Y2750000D02*
D03*
X10250000Y6250000D02*
D03*
X10375000Y6000000D02*
D03*
X10250000Y5750000D02*
D03*
Y3750000D02*
D03*
Y3250000D02*
D03*
X10375000Y3000000D02*
D03*
X10250000Y2750000D02*
D03*
X10000000Y6250000D02*
D03*
X10125000Y6000000D02*
D03*
Y5500000D02*
D03*
X10000000Y5250000D02*
D03*
Y4750000D02*
D03*
X10125000Y4000000D02*
D03*
X10000000Y3250000D02*
D03*
X10125000Y3000000D02*
D03*
X10000000Y2750000D02*
D03*
X9750000Y6250000D02*
D03*
X9875000Y6000000D02*
D03*
X9750000Y5250000D02*
D03*
X9875000Y5000000D02*
D03*
X9750000Y4750000D02*
D03*
X9875000Y4500000D02*
D03*
X9750000Y3250000D02*
D03*
X9875000Y3000000D02*
D03*
X9750000Y2750000D02*
D03*
X9500000Y6250000D02*
D03*
X9625000Y6000000D02*
D03*
Y5500000D02*
D03*
X9500000Y5250000D02*
D03*
X9625000Y5000000D02*
D03*
X9500000Y4750000D02*
D03*
X9625000Y4000000D02*
D03*
X9500000Y3250000D02*
D03*
X9625000Y3000000D02*
D03*
X9500000Y2750000D02*
D03*
X9250000Y6250000D02*
D03*
X9375000Y6000000D02*
D03*
Y5500000D02*
D03*
X9250000Y5250000D02*
D03*
X9375000Y5000000D02*
D03*
X9250000Y3250000D02*
D03*
X9375000Y3000000D02*
D03*
X9250000Y2750000D02*
D03*
X9000000Y6250000D02*
D03*
X9125000Y6000000D02*
D03*
X9000000Y5750000D02*
D03*
X9125000Y5500000D02*
D03*
X9000000Y5250000D02*
D03*
X9125000Y5000000D02*
D03*
X9000000Y4750000D02*
D03*
Y3250000D02*
D03*
X9125000Y3000000D02*
D03*
X9000000Y2750000D02*
D03*
X8750000Y6250000D02*
D03*
X8875000Y6000000D02*
D03*
X8750000Y5750000D02*
D03*
Y3250000D02*
D03*
X8875000Y3000000D02*
D03*
X8750000Y2750000D02*
D03*
X8500000Y6250000D02*
D03*
X8625000Y6000000D02*
D03*
X8500000Y5750000D02*
D03*
X8625000Y5500000D02*
D03*
Y5000000D02*
D03*
X8500000Y4750000D02*
D03*
Y3750000D02*
D03*
X8625000Y3500000D02*
D03*
X8500000Y3250000D02*
D03*
X8625000Y3000000D02*
D03*
X8500000Y2750000D02*
D03*
X8250000Y6250000D02*
D03*
X8375000Y6000000D02*
D03*
Y5500000D02*
D03*
Y5000000D02*
D03*
X8250000Y4750000D02*
D03*
Y3750000D02*
D03*
X8375000Y3500000D02*
D03*
X8250000Y3250000D02*
D03*
X8375000Y3000000D02*
D03*
X8250000Y2750000D02*
D03*
X8000000Y6250000D02*
D03*
X8125000Y6000000D02*
D03*
X8000000Y5750000D02*
D03*
X8125000Y5500000D02*
D03*
X8000000Y4750000D02*
D03*
X8125000Y3500000D02*
D03*
X8000000Y3250000D02*
D03*
X8125000Y3000000D02*
D03*
X8000000Y2750000D02*
D03*
X7875000Y6000000D02*
D03*
X7750000Y5750000D02*
D03*
X7875000Y5500000D02*
D03*
X7750000Y5250000D02*
D03*
X7875000Y5000000D02*
D03*
X7750000Y4750000D02*
D03*
X7875000Y4500000D02*
D03*
Y3500000D02*
D03*
X7750000Y3250000D02*
D03*
X7875000Y3000000D02*
D03*
X7500000Y5750000D02*
D03*
X7625000Y5500000D02*
D03*
X7500000Y5250000D02*
D03*
X7625000Y5000000D02*
D03*
X7500000Y4750000D02*
D03*
X7625000Y4500000D02*
D03*
Y3500000D02*
D03*
X7500000Y3250000D02*
D03*
X8915000Y3772500D02*
D03*
X11537500Y3670000D02*
D03*
X8945000Y3723750D02*
D03*
X13762500Y3815000D02*
D03*
X13802499Y4260000D02*
D03*
X13047501Y4075000D02*
D03*
X10957500Y4090000D02*
D03*
X10372500Y4092500D02*
D03*
X11107500Y3570000D02*
D03*
X9377500Y3722500D02*
D03*
X15110001Y3595000D02*
D03*
X8917500Y4057500D02*
D03*
X9137500Y4050000D02*
D03*
X9640000Y4570000D02*
D03*
X9255000Y4797500D02*
D03*
X8832500Y4605000D02*
D03*
X11764510Y4312150D02*
D03*
X11655000Y4167500D02*
D03*
X10440000Y3567500D02*
D03*
X10522500Y3490000D02*
D03*
X14720200Y4570200D02*
D03*
X14482700Y4807700D02*
D03*
X14382500Y4565000D02*
D03*
X15605000Y4190000D02*
D03*
X13600000Y2687500D02*
D03*
X13439999Y2692500D02*
D03*
X13160001Y2680000D02*
D03*
X12914999Y2675000D02*
D03*
X12630000Y2670000D02*
D03*
X12372500Y2662500D02*
D03*
X12162500Y2660000D02*
D03*
X11342500Y4567500D02*
D03*
X10460000Y5505000D02*
D03*
X8525000Y4065000D02*
D03*
X12805000Y5607500D02*
D03*
X15960001Y4100000D02*
D03*
X15257500Y4115000D02*
D03*
X14900000Y3405000D02*
D03*
X14820000Y3645000D02*
D03*
X14457500Y3602500D02*
D03*
X12877499Y3672500D02*
D03*
X12277500Y4832500D02*
D03*
X12535000Y4817500D02*
D03*
X12925000Y4577500D02*
D03*
X12697500Y4082500D02*
D03*
X12372500Y4085000D02*
D03*
X12010000Y4052500D02*
D03*
X11055000Y4867500D02*
D03*
X10715000Y4667500D02*
D03*
X10662500Y4087500D02*
D03*
X12155000Y3567500D02*
D03*
X11793634Y4797414D02*
D03*
X13672501Y3395000D02*
D03*
X11450000Y5155000D02*
D03*
X9857500Y4052500D02*
D03*
X12247500Y3487500D02*
D03*
X13295000Y3355000D02*
D03*
X13872501Y3765000D02*
D03*
%TF.MD5,42aeb92504e822dcd9a8f3868244deee*%
M02*
