%TF.GenerationSoftware,Altium Limited,Altium Designer,24.8.2 (39)*%
G04 Layer_Color=255*
%FSLAX45Y45*%
%MOMM*%
%TF.SameCoordinates,FC40D359-564B-479C-ACF9-AE4C40DE52D9*%
%TF.FilePolarity,Positive*%
%TF.FileFunction,Pads,Top*%
%TF.Part,Single*%
G01*
G75*
%TA.AperFunction,SMDPad,CuDef*%
%ADD10R,0.80000X0.65000*%
%ADD11R,1.45000X0.30000*%
%ADD12R,0.65000X0.80000*%
%ADD13R,0.80000X0.80000*%
%ADD14R,0.50000X0.50000*%
%ADD15R,2.45000X2.15000*%
%ADD16R,0.80000X0.80000*%
%ADD17R,2.20000X1.60000*%
%TA.AperFunction,ComponentPad*%
%ADD20C,1.40000*%
%TA.AperFunction,ViaPad*%
%ADD21C,3.00000*%
%TA.AperFunction,ComponentPad*%
%ADD22C,1.90000*%
%ADD23C,1.70000*%
D10*
X9990000Y3720000D02*
D03*
Y3865000D02*
D03*
X9487500Y3720000D02*
D03*
Y3865000D02*
D03*
X11290000Y3752500D02*
D03*
Y3897500D02*
D03*
X11790000Y3752500D02*
D03*
Y3897500D02*
D03*
X12995000Y3757500D02*
D03*
Y3902500D02*
D03*
X13495000Y3757500D02*
D03*
Y3902500D02*
D03*
X14732500Y3755000D02*
D03*
Y3900000D02*
D03*
X15232500Y3755000D02*
D03*
Y3900000D02*
D03*
X12780000Y5072500D02*
D03*
Y4927500D02*
D03*
X13280000Y5072500D02*
D03*
Y4927500D02*
D03*
D11*
X9247500Y3725000D02*
D03*
Y3775000D02*
D03*
Y3825000D02*
D03*
Y3875000D02*
D03*
Y3925000D02*
D03*
X8812500Y3725000D02*
D03*
Y3775000D02*
D03*
Y3825000D02*
D03*
Y3875000D02*
D03*
Y3925000D02*
D03*
X14005000Y3965000D02*
D03*
Y3915000D02*
D03*
Y3865000D02*
D03*
Y3815000D02*
D03*
Y3765000D02*
D03*
X14439999Y3965000D02*
D03*
Y3915000D02*
D03*
Y3865000D02*
D03*
Y3815000D02*
D03*
Y3765000D02*
D03*
X11047500D02*
D03*
Y3815000D02*
D03*
Y3865000D02*
D03*
Y3915000D02*
D03*
Y3965000D02*
D03*
X10612500Y3765000D02*
D03*
Y3815000D02*
D03*
Y3865000D02*
D03*
Y3915000D02*
D03*
Y3965000D02*
D03*
X12762500Y3770000D02*
D03*
Y3820000D02*
D03*
Y3870000D02*
D03*
Y3920000D02*
D03*
Y3970000D02*
D03*
X12327500Y3770000D02*
D03*
Y3820000D02*
D03*
Y3870000D02*
D03*
Y3920000D02*
D03*
Y3970000D02*
D03*
D12*
X9562500Y4385000D02*
D03*
X9417500D02*
D03*
X9115000D02*
D03*
X9260000D02*
D03*
X8955000D02*
D03*
X8810000D02*
D03*
X8507500D02*
D03*
X8652500D02*
D03*
X9115000Y4242500D02*
D03*
X9260000D02*
D03*
X9562500D02*
D03*
X9417500D02*
D03*
X8955000D02*
D03*
X8810000D02*
D03*
X8507500D02*
D03*
X8652500D02*
D03*
X9122500Y3570000D02*
D03*
X8977500D02*
D03*
X14120000Y4390000D02*
D03*
X13975000D02*
D03*
X14275000D02*
D03*
X14420000D02*
D03*
X14875000Y4250000D02*
D03*
X15020000D02*
D03*
X14720000D02*
D03*
X14575000D02*
D03*
X14720000Y4390000D02*
D03*
X14575000D02*
D03*
X14275000Y4250000D02*
D03*
X14420000D02*
D03*
X14120000D02*
D03*
X13975000D02*
D03*
X14875000Y4390000D02*
D03*
X15020000D02*
D03*
X15642500Y4372500D02*
D03*
X15497501D02*
D03*
X10287500Y4395000D02*
D03*
X10432500D02*
D03*
X10732500D02*
D03*
X10587500D02*
D03*
X10887500D02*
D03*
X11032500D02*
D03*
X11332500D02*
D03*
X11187500D02*
D03*
X12002500Y4400000D02*
D03*
X12147500D02*
D03*
X12447500D02*
D03*
X12302500D02*
D03*
X12602500D02*
D03*
X12747500D02*
D03*
X13047501D02*
D03*
X12902499D02*
D03*
X13655000Y4247500D02*
D03*
X13510001D02*
D03*
X13655000Y4387500D02*
D03*
X13510001D02*
D03*
X10287500Y4255000D02*
D03*
X10432500D02*
D03*
X10732500D02*
D03*
X10587500D02*
D03*
X10887500D02*
D03*
X11032500D02*
D03*
X11332500D02*
D03*
X11187500D02*
D03*
X10912500Y3605000D02*
D03*
X10767500D02*
D03*
X12002500Y4260000D02*
D03*
X12147500D02*
D03*
X12447500D02*
D03*
X12302500D02*
D03*
X12602500D02*
D03*
X12747500D02*
D03*
X13047501D02*
D03*
X12902499D02*
D03*
X12617500Y3610000D02*
D03*
X12472500D02*
D03*
X14285001Y3605000D02*
D03*
X14139999D02*
D03*
D13*
X9617500Y3830000D02*
D03*
X9857500Y3925000D02*
D03*
Y3735000D02*
D03*
X13364999Y3775000D02*
D03*
Y3965000D02*
D03*
X13125000Y3870000D02*
D03*
X11420000Y3865000D02*
D03*
X11660000Y3960000D02*
D03*
Y3770000D02*
D03*
X14862500Y3867500D02*
D03*
X15102499Y3962500D02*
D03*
Y3772500D02*
D03*
X13150000Y5030000D02*
D03*
X12910001Y4935000D02*
D03*
Y5125000D02*
D03*
X13650000Y5040000D02*
D03*
X13410001Y4945000D02*
D03*
Y5135000D02*
D03*
D14*
X11912500Y5160000D02*
D03*
Y5238900D02*
D03*
X11670000D02*
D03*
Y5160000D02*
D03*
X11550000Y5161100D02*
D03*
Y5240000D02*
D03*
X11790000Y5160000D02*
D03*
Y5238900D02*
D03*
D15*
X15622501Y3865000D02*
D03*
X15937500D02*
D03*
D16*
X16039999Y4277500D02*
D03*
X15800000Y4182500D02*
D03*
Y4372500D02*
D03*
D17*
X16077499Y5085000D02*
D03*
X15777499D02*
D03*
D20*
X8127500Y5257200D02*
D03*
Y4907500D02*
D03*
X8128400Y4557100D02*
D03*
X8127300Y3857600D02*
D03*
Y4207100D02*
D03*
X12660000Y5750000D02*
D03*
X12310300D02*
D03*
X11959900Y5749100D02*
D03*
X11260400Y5750200D02*
D03*
X11609900D02*
D03*
X14563078Y5753900D02*
D03*
X14213379D02*
D03*
X13862979Y5753000D02*
D03*
X13163480Y5754100D02*
D03*
X13512979D02*
D03*
X10749700Y5750000D02*
D03*
X10400000D02*
D03*
X10049600Y5749100D02*
D03*
X9350100Y5750200D02*
D03*
X9699600D02*
D03*
D21*
X16437500Y6210000D02*
D03*
X16436340Y2865120D02*
D03*
X7670800Y6210300D02*
D03*
Y2865120D02*
D03*
D22*
X15709900Y5575300D02*
D03*
X15201900D02*
D03*
D23*
X13700760Y5432500D02*
D03*
X13446761D02*
D03*
X13192760D02*
D03*
X12938760D02*
D03*
X12684760D02*
D03*
X12430760D02*
D03*
X12176760D02*
D03*
X11922760D02*
D03*
X11668760D02*
D03*
X11414760D02*
D03*
X13700760Y2892500D02*
D03*
X13446761D02*
D03*
X13192760D02*
D03*
X12938760D02*
D03*
X12684760D02*
D03*
X12430760D02*
D03*
X12176760D02*
D03*
X11922760D02*
D03*
X11668760D02*
D03*
X11414760D02*
D03*
%TF.MD5,52889969d5c7355d901dddf4a93e92b9*%
M02*
